<mxfile host="app.diagrams.net" modified="2023-06-10T13:59:18.593Z" agent="Mozilla/5.0 (Windows NT 10.0; Win64; x64) AppleWebKit/537.36 (KHTML, like Gecko) Chrome/114.0.0.0 Safari/537.36 Edg/114.0.1823.41" etag="f-nPRDoivOIq3K0vrz1k" version="21.3.8" type="device">
  <diagram name="ページ1" id="D5p3RVC4t98DR3PqROP9">
    <mxGraphModel dx="794" dy="438" grid="1" gridSize="10" guides="1" tooltips="1" connect="1" arrows="1" fold="1" page="1" pageScale="1" pageWidth="1169" pageHeight="827" math="0" shadow="0">
      <root>
        <mxCell id="0" />
        <mxCell id="1" parent="0" />
        <mxCell id="StKes1Bay4Hae8yV6QAt-6" value="" style="edgeStyle=orthogonalEdgeStyle;rounded=0;orthogonalLoop=1;jettySize=auto;exitX=0.5;exitY=1;exitDx=0;exitDy=0;exitPerimeter=0;fontFamily=BIZ UDPGothic;fontSize=16;" parent="1" source="StKes1Bay4Hae8yV6QAt-1" target="StKes1Bay4Hae8yV6QAt-3" edge="1">
          <mxGeometry relative="1" as="geometry" />
        </mxCell>
        <mxCell id="StKes1Bay4Hae8yV6QAt-1" value="開始" style="strokeWidth=2;shape=mxgraph.flowchart.terminator;fontFamily=BIZ UDPGothic;fontSize=16;" parent="1" vertex="1">
          <mxGeometry x="80" y="100" width="80" height="40" as="geometry" />
        </mxCell>
        <mxCell id="StKes1Bay4Hae8yV6QAt-2" value="終了" style="strokeWidth=2;shape=mxgraph.flowchart.terminator;fontFamily=BIZ UDPGothic;fontSize=16;" parent="1" vertex="1">
          <mxGeometry x="80" y="340" width="80" height="40" as="geometry" />
        </mxCell>
        <mxCell id="StKes1Bay4Hae8yV6QAt-7" value="" style="edgeStyle=orthogonalEdgeStyle;rounded=0;orthogonalLoop=1;jettySize=auto;exitX=0.5;exitY=1;exitDx=0;exitDy=0;entryX=0.5;entryY=0;entryDx=0;entryDy=0;fontFamily=BIZ UDPGothic;fontSize=16;" parent="1" source="StKes1Bay4Hae8yV6QAt-3" target="StKes1Bay4Hae8yV6QAt-4" edge="1">
          <mxGeometry relative="1" as="geometry" />
        </mxCell>
        <mxCell id="StKes1Bay4Hae8yV6QAt-3" value="1と表示する" style="rounded=1;absoluteArcSize=1;arcSize=14;strokeWidth=2;fontFamily=BIZ UDPGothic;fontSize=16;" parent="1" vertex="1">
          <mxGeometry x="40" y="160" width="160" height="40" as="geometry" />
        </mxCell>
        <mxCell id="StKes1Bay4Hae8yV6QAt-8" value="" style="edgeStyle=orthogonalEdgeStyle;rounded=0;orthogonalLoop=1;jettySize=auto;exitX=0.5;exitY=1;exitDx=0;exitDy=0;entryX=0.5;entryY=0;entryDx=0;entryDy=0;fontFamily=BIZ UDPGothic;fontSize=16;" parent="1" source="StKes1Bay4Hae8yV6QAt-4" target="StKes1Bay4Hae8yV6QAt-5" edge="1">
          <mxGeometry relative="1" as="geometry" />
        </mxCell>
        <mxCell id="StKes1Bay4Hae8yV6QAt-4" value="1秒待つ" style="rounded=1;absoluteArcSize=1;arcSize=14;strokeWidth=2;fontFamily=BIZ UDPGothic;fontSize=16;" parent="1" vertex="1">
          <mxGeometry x="40" y="220" width="160" height="40" as="geometry" />
        </mxCell>
        <mxCell id="StKes1Bay4Hae8yV6QAt-9" value="" style="edgeStyle=orthogonalEdgeStyle;rounded=0;orthogonalLoop=1;jettySize=auto;exitX=0.5;exitY=1;exitDx=0;exitDy=0;entryX=0.5;entryY=0;entryDx=0;entryDy=0;entryPerimeter=0;fontFamily=BIZ UDPGothic;fontSize=16;" parent="1" source="StKes1Bay4Hae8yV6QAt-5" target="StKes1Bay4Hae8yV6QAt-2" edge="1">
          <mxGeometry relative="1" as="geometry" />
        </mxCell>
        <mxCell id="StKes1Bay4Hae8yV6QAt-5" value="0と表示する" style="rounded=1;absoluteArcSize=1;arcSize=14;strokeWidth=2;fontFamily=BIZ UDPGothic;fontSize=16;" parent="1" vertex="1">
          <mxGeometry x="40" y="280" width="160" height="40" as="geometry" />
        </mxCell>
        <mxCell id="StKes1Bay4Hae8yV6QAt-12" value="キッチンタイマー2秒" style="text;strokeColor=none;fillColor=none;align=left;verticalAlign=middle;rounded=0;fontFamily=BIZ UDPGothic;fontSize=20;" parent="1" vertex="1">
          <mxGeometry x="320" y="40" width="200" height="40" as="geometry" />
        </mxCell>
        <mxCell id="9aM1dBj8owvEj4xOFZrg-10" value="キッチンタイマー1秒" style="text;strokeColor=none;fillColor=none;align=left;verticalAlign=middle;rounded=0;fontFamily=BIZ UDPGothic;fontSize=20;" parent="1" vertex="1">
          <mxGeometry x="40" y="40" width="200" height="40" as="geometry" />
        </mxCell>
      </root>
    </mxGraphModel>
  </diagram>
</mxfile>
